<?xml version="1.0" standalone="no"?><!DOCTYPE svg PUBLIC "-//W3C//DTD SVG 1.1//EN" "http://www.w3.org/Graphics/SVG/1.1/DTD/svg11.dtd"><svg class="icon" width="200px" height="200.00px" viewBox="0 0 1024 1024" version="1.1" xmlns="http://www.w3.org/2000/svg"><path fill="#333333" d="M510.8 547.7c-107.5 0-194.9-87.4-194.9-194.9s87.4-194.9 194.9-194.9 194.9 87.4 194.9 194.9-87.4 194.9-194.9 194.9z m0-349.8c-85.4 0-154.9 69.5-154.9 154.9s69.5 154.9 154.9 154.9 154.9-69.5 154.9-154.9-69.5-154.9-154.9-154.9zM817.1 833c-4.8 0-9.6-1.7-13.5-5.2L646 684.2c-8.2-7.4-8.8-20.1-1.3-28.3s20.1-8.8 28.3-1.3l157.6 143.5c8.2 7.4 8.8 20.1 1.3 28.3-3.9 4.4-9.4 6.6-14.8 6.6z"  /><path fill="#333333" d="M659.5 833c-5.4 0-10.8-2.2-14.8-6.5-7.4-8.2-6.8-20.8 1.3-28.3l157.6-143.5c8.2-7.4 20.8-6.8 28.3 1.3 7.4 8.2 6.8 20.8-1.3 28.3L673 827.8c-3.9 3.5-8.7 5.2-13.5 5.2zM223.6 831.6c-11 0-20-9-20-20 0-81.4 31.7-158 89.3-215.5 57.6-57.6 134.1-89.3 215.5-89.3 43.1 0 84.8 8.8 123.8 26.2 37.7 16.8 71.2 40.7 99.4 71.1 7.5 8.1 7.1 20.7-1 28.3-8.1 7.5-20.7 7.1-28.3-1-24.5-26.4-53.6-47.2-86.4-61.8-33.9-15.1-70.1-22.8-107.6-22.8-70.7 0-137.2 27.5-187.2 77.6s-77.6 116.5-77.6 187.2c0.1 11-8.8 20-19.9 20z"  /></svg>