<?xml version="1.0" standalone="no"?><!DOCTYPE svg PUBLIC "-//W3C//DTD SVG 1.1//EN" "http://www.w3.org/Graphics/SVG/1.1/DTD/svg11.dtd"><svg class="icon" width="200px" height="200.00px" viewBox="0 0 1024 1024" version="1.1" xmlns="http://www.w3.org/2000/svg"><path fill="#333333" d="M508.8 547.7c-107.5 0-194.9-87.4-194.9-194.9s87.4-194.9 194.9-194.9 194.9 87.4 194.9 194.9-87.4 194.9-194.9 194.9z m0-349.8c-85.4 0-154.9 69.5-154.9 154.9s69.5 154.9 154.9 154.9 154.9-69.5 154.9-154.9-69.5-154.9-154.9-154.9zM872.7 638.3c-7.8-7.8-20.4-7.8-28.1 0l-143 143-83.4-83.3c-7.8-7.8-20.4-7.8-28.2 0-7.8 7.8-7.8 20.4 0 28.2l96.3 96.3c2 2 4.6 3.6 7.2 4.4 2.6 1.2 5.6 2 8.4 2 5.2 0 10.2-2 14.2-5.8l156.8-156.8c7.6-7.8 7.5-20.3-0.2-28z"  /><path fill="#333333" d="M224.9 831.9c-11 0-20-9-20-20 0-81.4 31.7-158 89.3-215.5 57.6-57.6 134.1-89.3 215.5-89.3 43.1 0 84.8 8.8 123.8 26.2 37.7 16.8 71.2 40.7 99.4 71.1 7.5 8.1 7.1 20.7-1 28.3-8.1 7.5-20.7 7.1-28.3-1-24.5-26.4-53.6-47.2-86.4-61.8-33.9-15.1-70.1-22.8-107.6-22.8-70.7 0-137.2 27.5-187.2 77.6s-77.6 116.5-77.6 187.2c0.1 11-8.8 20-19.9 20z"  /></svg>