<?xml version="1.0" standalone="no"?><!DOCTYPE svg PUBLIC "-//W3C//DTD SVG 1.1//EN" "http://www.w3.org/Graphics/SVG/1.1/DTD/svg11.dtd"><svg class="icon" width="200px" height="200.00px" viewBox="0 0 1024 1024" version="1.1" xmlns="http://www.w3.org/2000/svg"><path fill="#333333" d="M756.2 802.6H234.9c-36.1 0-65.6-29.4-65.6-65.6V263.2c0-32.3 26.3-58.5 58.5-58.5h96c19.3 0 37.8 5.8 53.6 16.8l50.8 35.4c4.3 3 7.5 5.7 9.7 7.6 1 0.8 2.1 1.8 2.7 2.2 0.4 0.1 1.7 0.3 4.2 0.3l310.6 2c31.7 0.2 57.5 26.2 57.5 57.9v27h-40v-27c0-9.8-8-17.8-17.8-17.9l-310.6-2c-17.2-0.1-24.3-5.1-32.5-12-1.9-1.6-3.9-3.4-6.7-5.3l-50.8-35.4c-9.1-6.3-19.7-9.7-30.7-9.7h-96c-10.2 0-18.5 8.3-18.5 18.5V737c0 14.1 11.5 25.6 25.6 25.6h521.2v40z"  /><path fill="#333333" d="M756.1 802.6H252.8c-18.6 0-35.6-8.6-46.6-23.5s-14.2-33.7-8.7-51.5L300.8 395c7.6-24.4 29.8-40.7 55.3-40.7h503.2c18.6 0 35.6 8.6 46.6 23.5 11 15 14.2 33.7 8.7 51.5L811.4 761.8c-7.6 24.4-29.8 40.8-55.3 40.8zM356 394.2c-7.9 0-14.7 5.1-17.1 12.6L235.8 739.4c-1.7 5.5-0.7 11.3 2.7 15.9s8.7 7.3 14.4 7.3h503.2c7.9 0 14.7-5.1 17.1-12.6l103.2-332.6c1.7-5.5 0.7-11.3-2.7-15.9-3.4-4.6-8.7-7.3-14.4-7.3H356z"  /><path fill="#333333" d="M546.1 698c-11 0-20-9-20-20V507.3c0-11 9-20 20-20s20 9 20 20V678c0 11-9 20-20 20z"  /><path fill="#333333" d="M641.2 607c-5.1 0-10.2-2-14.1-5.9l-69.1-69c-3.5-3.5-8.1-5.4-13.1-5.4-4.9 0-9.6 1.9-13.1 5.4l-65.2 65.2c-7.8 7.8-20.5 7.8-28.3 0s-7.8-20.5 0-28.3l65.2-65.2c22.8-22.8 59.9-22.8 82.7 0l69.1 69.1c7.8 7.8 7.8 20.5 0 28.3-3.8 3.9-9 5.8-14.1 5.8z"  /></svg>