<?xml version="1.0" standalone="no"?><!DOCTYPE svg PUBLIC "-//W3C//DTD SVG 1.1//EN" "http://www.w3.org/Graphics/SVG/1.1/DTD/svg11.dtd"><svg class="icon" width="200px" height="200.00px" viewBox="0 0 1024 1024" version="1.1" xmlns="http://www.w3.org/2000/svg"><path fill="#333333" d="M826.5 833.2H190.8c-11 0-20-9-20-20V495.5c0-11 9-20 20-20s20 9 20 20v297.7h595.7V495.5c0-11 9-20 20-20s20 9 20 20v317.7c0 11.1-8.9 20-20 20z"  /><path fill="#333333" d="M508.6 669.6c-5.1 0-10.2-2-14.1-5.9L335.6 504.8c-7.8-7.8-7.8-20.5 0-28.3 7.8-7.8 20.5-7.8 28.3 0l144.8 144.8 144.8-144.8c7.8-7.8 20.5-7.8 28.3 0 7.8 7.8 7.8 20.5 0 28.3l-159 158.9c-3.9 4-9 5.9-14.2 5.9z"  /><path fill="#333333" d="M508.5 656.8c-11 0-20-9-20-20V177.7c0-11 9-20 20-20s20 9 20 20v459.1c0 11.1-8.9 20-20 20z"  /></svg>