<?xml version="1.0" standalone="no"?><!DOCTYPE svg PUBLIC "-//W3C//DTD SVG 1.1//EN" "http://www.w3.org/Graphics/SVG/1.1/DTD/svg11.dtd"><svg class="icon" width="200px" height="200.00px" viewBox="0 0 1024 1024" version="1.1" xmlns="http://www.w3.org/2000/svg"><path fill="#333333" d="M636.7 830.7H254.6c-31.3 0-56.8-25.5-56.8-56.8V416c0-31.3 25.5-56.8 56.8-56.8h122.6c9.3 0 16.8-7.5 16.8-16.8V213.6c0-31.3 25.5-56.8 56.8-56.8h276.8c31.3 0 56.8 25.5 56.8 56.8v322.9c0 11-9 20-20 20s-20-9-20-20V213.6c0-9.3-7.5-16.8-16.8-16.8H450.8c-9.3 0-16.8 7.5-16.8 16.8v128.8c0 31.3-25.5 56.8-56.8 56.8H254.6c-9.3 0-16.8 7.5-16.8 16.8v357.9c0 9.3 7.5 16.8 16.8 16.8h382.1c11 0 20 9 20 20s-9 20-20 20z"  /><path fill="#333333" d="M224.8 412.2c-5 0-10-1.9-13.9-5.6-7.9-7.7-8.1-20.3-0.4-28.3l196.2-202.4c7.7-7.9 20.3-8.1 28.3-0.4 7.9 7.7 8.1 20.3 0.4 28.3L239.2 406.2c-3.9 4-9.2 6-14.4 6zM664.3 732c-11 0-20-8.9-20-20 0-11 8.9-20 20-20l197.9-0.5c11 0 20 8.9 20 20 0 11-8.9 20-20 20l-197.9 0.5z"  /><path fill="#333333" d="M763.2 832.6c-11 0-20-9-20-20V615.9c0-11 9-20 20-20s20 9 20 20v196.7c0 11.1-8.9 20-20 20z"  /></svg>