<?xml version="1.0" standalone="no"?><!DOCTYPE svg PUBLIC "-//W3C//DTD SVG 1.1//EN" "http://www.w3.org/Graphics/SVG/1.1/DTD/svg11.dtd"><svg class="icon" width="200px" height="200.00px" viewBox="0 0 1024 1024" version="1.1" xmlns="http://www.w3.org/2000/svg"><path fill="#333333" d="M762.5 810.7H241.3c-36.1 0-65.6-29.4-65.6-65.6V271.3c0-32.3 26.3-58.5 58.5-58.5h96c19.3 0 37.8 5.8 53.6 16.8l50.8 35.4c4.3 3 7.5 5.7 9.7 7.6 1 0.8 2.1 1.8 2.7 2.2 0.4 0.1 1.7 0.3 4.2 0.3l310.6 2c31.7 0.2 57.5 26.2 57.5 57.9v27h-40v-27c0-9.8-8-17.8-17.8-17.9l-310.6-2c-17.2-0.1-24.3-5.1-32.5-12-1.9-1.6-3.9-3.4-6.7-5.3L361 262.4c-9.1-6.3-19.7-9.7-30.7-9.7h-96c-10.2 0-18.5 8.3-18.5 18.5V745c0 14.1 11.5 25.6 25.6 25.6h521.2v40.1z"  /><path fill="#333333" d="M762.4 810.7H259.2c-18.6 0-35.6-8.6-46.6-23.5s-14.2-33.7-8.7-51.5l103.2-332.6c7.6-24.4 29.8-40.7 55.3-40.7h503.2c18.6 0 35.6 8.6 46.6 23.5 11 15 14.2 33.7 8.7 51.5L817.7 769.9c-7.6 24.4-29.8 40.8-55.3 40.8zM362.3 402.3c-7.9 0-14.7 5.1-17.1 12.6L242.1 747.5c-1.7 5.5-0.7 11.3 2.7 15.9s8.7 7.3 14.4 7.3h503.2c7.9 0 14.7-5.1 17.1-12.6l103.2-332.6c1.7-5.5 0.7-11.3-2.7-15.9-3.4-4.6-8.7-7.3-14.4-7.3H362.3z"  /><path fill="#333333" d="M447.5 599.6c0-11 9-20 20-20h170.6c11 0 20 9 20 20s-9 20-20 20H467.5c-11 0-20-8.9-20-20z"  /><path fill="#333333" d="M538.5 694.8c0-5.1 2-10.2 5.9-14.1l69.1-69.1c3.5-3.5 5.4-8.1 5.4-13.1 0-4.9-1.9-9.6-5.4-13.1l-65.2-65.2c-7.8-7.8-7.8-20.5 0-28.3s20.5-7.8 28.3 0l65.2 65.2c22.8 22.8 22.8 59.9 0 82.7l-69.1 69.1c-7.8 7.8-20.5 7.8-28.3 0-4-3.9-5.9-9-5.9-14.1z"  /></svg>